<svg xmlns="http://www.w3.org/2000/svg" xmlns:xlink="http://www.w3.org/1999/xlink" viewBox="0 0 153.75 142.72"><defs><style>.cls-1{fill:url(#Degradado_sin_nombre_34);}.cls-2{fill:url(#Degradado_sin_nombre_57);}.cls-3{fill:url(#Degradado_sin_nombre_34-2);}.cls-4{fill:url(#Degradado_sin_nombre_34-3);}.cls-5{fill:url(#Degradado_sin_nombre_57-2);}</style><linearGradient id="Degradado_sin_nombre_34" x1="36.15" y1="29.58" x2="47.46" y2="114.57" gradientUnits="userSpaceOnUse"><stop offset="0" stop-color="#5632bd"/><stop offset="1" stop-color="#d76ae3"/></linearGradient><linearGradient id="Degradado_sin_nombre_57" x1="102.62" y1="72.26" x2="80" y2="19.01" gradientUnits="userSpaceOnUse"><stop offset="0" stop-color="#67ebab"/><stop offset="0.43" stop-color="#50d2cd"/><stop offset="1" stop-color="#2faeff"/></linearGradient><linearGradient id="Degradado_sin_nombre_34-2" x1="35.23" y1="96.26" x2="63.04" y2="151.5" xlink:href="#Degradado_sin_nombre_34"/><linearGradient id="Degradado_sin_nombre_34-3" x1="66.11" y1="92.73" x2="77.57" y2="115.49" xlink:href="#Degradado_sin_nombre_34"/><linearGradient id="Degradado_sin_nombre_57-2" x1="125.53" y1="122.61" x2="98.54" y2="68.63" xlink:href="#Degradado_sin_nombre_57"/></defs><title>Asset 1@4xn</title><g id="Layer_2" data-name="Layer 2"><g id="OBJECTS"><path class="cls-1" d="M45.42,90.09,36.52,99a4.75,4.75,0,0,1,.33,1.73,4.64,4.64,0,1,1-4.64-4.64,4.75,4.75,0,0,1,1.73.33l8.89-8.9-7.22-7.22a4.75,4.75,0,0,1-1.73.33,4.67,4.67,0,1,1,4.31-2.92l15.9,15.9,4.29-4.29a4.64,4.64,0,1,1,4.31,2.92A4.47,4.47,0,0,1,61,91.88l-4.29,4.3,18.05,18V75l-9.62-9.62A4.64,4.64,0,1,1,68,61.1a4.56,4.56,0,0,1-.34,1.73l7,7V52.72L59,37a4.64,4.64,0,1,1,2.59-2.59L74.73,47.55V.56A18.28,18.28,0,0,0,52.08,16.29a1.11,1.11,0,0,1,0,.17A4,4,0,0,1,47.26,20,18.27,18.27,0,0,0,25.87,43.57a5.1,5.1,0,0,1-3.63,6.61C10.16,53,0,63.1,0,75.11A25.6,25.6,0,0,0,5.5,91a26,26,0,0,0,9.09,7.3,3.89,3.89,0,0,1,2,4.8,18.27,18.27,0,0,0,17.25,24.33,23.44,23.44,0,0,0,6.54-1.19,4,4,0,0,1,5.1,2.78,18.28,18.28,0,0,0,29.24,9.58V119.4Z"/><path class="cls-2" d="M148.8,61.17a30.89,30.89,0,0,0-17.3-11,5.1,5.1,0,0,1-3.62-6.61,18.51,18.51,0,0,0,.85-7.17,18.32,18.32,0,0,0-8-13.66A17.92,17.92,0,0,0,112,19.66a18.39,18.39,0,0,0-5.48.38,4,4,0,0,1-4.8-3.58,1.11,1.11,0,0,1,0-.17A18.28,18.28,0,0,0,79,.56V47.94L92.58,34.37a4.64,4.64,0,1,1,4.31,2.92A4.75,4.75,0,0,1,95.16,37L79,53.11V70.25l7.42-7.42a4.75,4.75,0,0,1-.33-1.73A4.64,4.64,0,1,1,89,65.41l-10,10v39.2L97.22,96.4,92.7,91.88a4.47,4.47,0,0,1-1.72.34,4.64,4.64,0,1,1,4.31-2.92l4.52,4.52,16.13-16.13A4.47,4.47,0,0,1,115.6,76a4.64,4.64,0,1,1,2.92,4.31l-7.42,7.41,8.71,8.71a4.75,4.75,0,0,1,1.73-.33,4.64,4.64,0,1,1-4.65,4.64,4.56,4.56,0,0,1,.34-1.73l-8.71-8.7-29.4,29.39-.11-.11v19.05A18.28,18.28,0,0,0,108.25,129a4,4,0,0,1,5.1-2.78,23.44,23.44,0,0,0,6.54,1.19,18.3,18.3,0,0,0,17.26-24.33,3.87,3.87,0,0,1,2-4.8,25.74,25.74,0,0,0,14.6-23.2A22.79,22.79,0,0,0,148.8,61.17Z"/><path class="cls-3" d="M61.36,106c-16.6,11.37-31.45,14.39-41.65,14.73a18.26,18.26,0,0,0,14.14,6.68,23.44,23.44,0,0,0,6.54-1.19,4,4,0,0,1,5.1,2.78,18.28,18.28,0,0,0,29.24,9.58V119.4Z"/><path class="cls-4" d="M74.73,95.27a116.1,116.1,0,0,1-10.35,8.61l10.35,10.35Z"/><path class="cls-5" d="M148.8,61.17a30.89,30.89,0,0,0-17.3-11,5.1,5.1,0,0,1-3.62-6.61,18.51,18.51,0,0,0,.85-7.17,18.32,18.32,0,0,0-8-13.66C107.36,53.61,93,74.93,79,89.59v25L97.22,96.4,92.7,91.88a4.47,4.47,0,0,1-1.72.34,4.64,4.64,0,1,1,4.31-2.92l4.52,4.52,16.13-16.13A4.47,4.47,0,0,1,115.6,76a4.64,4.64,0,1,1,2.92,4.31l-7.42,7.41,8.71,8.71a4.75,4.75,0,0,1,1.73-.33,4.64,4.64,0,1,1-4.65,4.64,4.56,4.56,0,0,1,.34-1.73l-8.71-8.7-29.4,29.39-.11-.11v19.05A18.28,18.28,0,0,0,108.25,129a4,4,0,0,1,5.1-2.78,23.44,23.44,0,0,0,6.54,1.19,18.3,18.3,0,0,0,17.26-24.33,3.87,3.87,0,0,1,2-4.8,25.74,25.74,0,0,0,14.6-23.2A22.79,22.79,0,0,0,148.8,61.17Z"/></g></g></svg>