<svg version="1" xmlns="http://www.w3.org/2000/svg" width="821.333" height="821.333" viewBox="0 0 616.000000 616.000000"><path d="M267.8 23.5c-2.7.6-4.8 1.1-4.8.9 0-1.1-14.4 5.3-20.3 8.9-6.9 4.3-17.8 14.4-20 18.3-.6 1.1-1.3 2.1-1.7 2.4-.4.3-2.3 3.4-4.1 7-3.5 6.6-6.3 14.6-7.3 21-.3 1.9-.8 4.6-1 6-.5 3.2-2.1 7-3.9 9.2-2 2.5-9.7 5.7-12.7 5.3-1.4-.2-4.5-.7-7-1.1-5.7-1-18.1-.9-24 0-27.9 4.6-49.8 24.4-58.6 53.2-2.5 8.4-2.5 29.6 0 37.9 3.3 10.9 2.8 16.5-2.2 23.4-2.4 3.3-10.1 7.5-15.2 8.4-4.7.9-15.3 4.8-22.4 8.4-17.5 8.7-35 23.3-45 37.4-4.6 6.7-13 23.2-14 27.9C.5 311.5.1 315.4.5 326.5c.2 6.6 1.1 14.9 1.9 18.5.9 3.6 1.8 7.5 2.1 8.7.9 3.7 7.9 19.4 9.8 21.8.4.5 2.2 3.2 4 6 2.9 4.6 17 19.4 22.7 24 1.4 1 6.3 4.1 11 6.8s9.3 5.6 10.4 6.5c4.4 4 6 11.4 3.7 17.5-.6 1.5-1.3 4-1.6 5.5-.2 1.5-.8 4.7-1.3 7.2-2.2 11.6.8 31.1 6.6 42.5 8.3 16.6 22 29.3 38.7 35.9 7.1 2.8 8.3 3.2 16.7 4.5 9.2 1.5 24.8 0 34.5-3.3 5.1-1.7 10-1.4 14.5.8 4.7 2.2 6.2 4.6 9.7 15 1.6 4.6 5 11.7 7.6 15.7 4.7 7.3 16.4 19.4 19.7 20.5 1 .3 1.8.9 1.8 1.3 0 1.2 14.7 7.8 21.5 9.7 11.1 3 30.5 2.5 41-1 .6-.2 1.5-.4 2-.5 2.7-.5 18.9-9.8 20.4-11.7 1.4-1.8 1.6-6.3 1.6-40.1l-.1-38-58.7-58.6-58.8-58.6-17.9 18c-16 16.1-17.8 18.2-17 20.3 1 2.8.2 9.2-1.6 12.8-8.4 16.4-33.9 10.9-34.6-7.4-.2-6.6 1.1-9.9 5.7-14.4 4.5-4.3 4.7-4.4 14.2-4.7l6.3-.2 17-17c9.3-9.3 17-17.3 17-17.6 0-.4-6.3-7-13.9-14.6l-14-14-5.5.5c-24 2-28.3-33-4.5-36.7 4.5-.7 5.7-.5 10.8 2 4.6 2.3 6.2 3.8 7.9 7.2 2.2 4.5 3 10.6 1.9 14.2-.6 1.7 5 7.7 31.1 33.8l31.8 31.8 8.7-8.6c4.8-4.7 8.5-9 8.1-9.6-.3-.6-.6-3.2-.6-6 .1-12.6 12.2-21.2 24.1-17.2 11.8 4 16.4 17.6 9.3 27.8-4.5 6.4-11.2 9.2-18.5 7.5-3.4-.7-3.7-.5-11.6 7.5-4.4 4.5-8.1 8.6-8.1 9 0 .8 70.2 71.5 71 71.5.3 0 .5-35.2.5-78.3v-78.2l-19.2-19.2c-18-17.9-19.5-19.1-22-18.4-8.8 2.4-19.3-3.5-22-12.3-2.5-8.2 1.1-17.6 8.6-22 4.2-2.4 15.1-2.8 17.1-.6.3.3 1.9 1.6 3.6 2.8 5.2 3.6 8.1 12 6.3 18.3-.6 2.4.6 3.9 13.2 16.7l13.9 13.9v-68.6L268 202l-31-31.1-4.9.4c-12.5 1.1-21.9-8.1-20.8-20.1.9-9.6 8.7-16.7 18.2-16.5 11.3.2 18.5 8.1 18.1 19.8l-.2 6 25.7 25.8c14.1 14.1 25.9 25.1 26.1 24.5.3-1.1.2-177.9-.1-184.4-.1-1.2-.9-2.5-1.8-2.9-3.2-1.3-24.5-1.4-29.5 0zM321 23.3l-4.5 1.2v94.7c0 52 .1 94.6.2 94.5.1-.1 12.3-12.3 27.1-27 26.2-26 26.9-26.9 26.3-30-1-5-.6-7.9 1.7-12.4 7-13.7 26.9-13 33.3 1.1 1.9 4.3 1.8 12-.1 15.6-3.7 6.9-9.9 10.3-18.7 10.4l-6.3.1-31.7 31.7-31.8 31.7.1 33.8c.1 18.6.2 33.9.3 34.1 0 .2 6.5-6.2 14.4-14.1l14.4-14.4-.3-6.5c-.3-5.6.1-7.1 2.3-10.6 7.6-11.7 25.2-11.3 32.1.7 2.5 4.3 2.7 12.3.4 16.8-2 3.8-7.2 9.1-9.3 9.4-1.3.2-2.9.6-3.1.9-.9.6-5.7.6-8.2-.1-2.8-.8-3.7-.1-23 19.2l-20.1 20.1v78.4c0 43.1.1 78.4.2 78.4s16.6-16.4 36.7-36.4l36.4-36.4-9.2-9.1c-8.6-8.4-9.5-9-12.2-8.3-10.9 2.9-22.5-6.4-22.4-18 .1-9.9 10-19 19.8-18.2 10.6.8 18.2 10.5 16.8 21.3l-.6 4.6 8.9 8.8 9 8.9 32.5-32.6c30.6-30.7 32.5-32.8 31.6-35.1-2.7-7.2 2-16.5 10.5-20.8 3.8-1.9 11.9-1.6 16 .6 8.6 4.5 12.1 15.7 7.7 24.4-3.8 7.3-10.6 10.9-19.1 10l-4.8-.5-14.7 14.7-14.6 14.6 17.3 17.3 17.2 17.2 5.6-.4c17.2-1.3 26.7 18 15.1 30.6-7.8 8.4-19.9 8-27.8-1.1-3.2-3.6-5-12.6-3.2-16.3.7-1.4-2.8-5.3-16.8-19.3l-17.7-17.7-59.1 59.1-59.1 59.1v37.9c0 20.9.2 38.1.5 38.4 3.3 2.7 11.4 7.4 17.1 9.8 19.9 8.5 42.3 7.8 61.4-1.9 16.2-8.1 29.6-23 35.5-39.1 1.1-3.1 2.8-7.5 3.6-9.9 2.2-5.8 7.7-9.5 14.2-9.5 2.6 0 5.6.3 6.7.7 12.9 4.3 29.7 5.1 42 2.1 7.9-1.9 21.5-8.2 26.6-12.3 4.5-3.6 13.9-13.3 16.4-16.8 11.9-17 16.1-41 10.6-60.5-3.6-13-2.5-18.4 5.1-23.9 2.2-1.7 4.5-3 5-3s4.1-2.1 8.1-4.7c15.1-10 28.9-25.7 36.3-41.3 11.4-24.1 13.3-49 5.6-73.7-1.2-3.7-8.2-18.5-9.2-19.3-.3-.3-2.1-2.6-3.8-5.2-3.6-5.3-16.5-18.7-22.8-23.6-11.8-9.2-26.2-16.6-41.3-21.1-5.5-1.7-11.1-3.5-12.3-4.2-4.1-2.1-8.7-8.2-9.7-13-1.1-4.9-1-5.7.9-12.9.7-2.5 1.4-5.4 1.7-6.5.3-1.1.6-7 .8-13 .5-17.4-4-32-14.1-45.4-4.4-5.9-13.8-15-18-17.4-18.5-10.6-33-13.8-51.9-11.2-10.7 1.5-13.6 1.1-17.5-2.1-3.9-3.3-5.9-7.2-6.6-12.7-.9-6.7-1.1-7.8-3.3-14.7-4.3-13.7-14.7-27.8-26.7-36.2-7.4-5.2-17-9.8-23.4-11.3-.8-.2-3.4-.8-5.6-1.3-5.9-1.3-22.1-1.3-27.4.1z"/></svg>